<svg xmlns="http://www.w3.org/2000/svg" version="1.1" xmlns:xlink="http://www.w3.org/1999/xlink" xmlns:svgjs="http://svgjs.com/svgjs" width="1440" height="560" preserveAspectRatio="none" viewBox="0 0 1440 560"><g mask="url(&quot;#SvgjsMask1334&quot;)" fill="none"><rect width="1440" height="560" x="0" y="0" fill="url(#SvgjsLinearGradient1335)"></rect><path d="M1440 0L764.21 0L1440 104.92z" fill="rgba(255, 255, 255, .1)"></path><path d="M764.21 0L1440 104.92L1440 324.69L715.2800000000001 0z" fill="rgba(255, 255, 255, .075)"></path><path d="M715.2800000000001 0L1440 324.69L1440 372.42L418.2600000000001 0z" fill="rgba(255, 255, 255, .05)"></path><path d="M418.2600000000001 0L1440 372.42L1440 460.78000000000003L405.5400000000001 0z" fill="rgba(255, 255, 255, .025)"></path><path d="M0 560L679.88 560L0 559.08z" fill="rgba(0, 0, 0, .1)"></path><path d="M0 559.08L679.88 560L956.27 560L0 443.79z" fill="rgba(0, 0, 0, .075)"></path><path d="M0 443.78999999999996L956.27 560L1252.33 560L0 198.96999999999997z" fill="rgba(0, 0, 0, .05)"></path><path d="M0 198.97000000000003L1252.33 560L1281.49 560L0 86.33000000000003z" fill="rgba(0, 0, 0, .025)"></path></g><defs><mask id="SvgjsMask1334"><rect width="1440" height="560" fill="#ffffff"></rect></mask><linearGradient x1="15.28%" y1="-39.29%" x2="84.72%" y2="139.29%" gradientUnits="userSpaceOnUse" id="SvgjsLinearGradient1335"><stop stop-color="#0e2a47" offset="0"></stop><stop stop-color="rgba(39, 0, 190, 1)" offset="1"></stop></linearGradient></defs></svg>